<mxfile host="Electron" modified="2024-07-26T16:47:54.231Z" agent="Mozilla/5.0 (X11; Linux x86_64) AppleWebKit/537.36 (KHTML, like Gecko) draw.io/24.5.3 Chrome/124.0.6367.207 Electron/30.0.6 Safari/537.36" etag="wuMkoPmHnZLKuO2oReNt" version="24.5.3" type="device">
  <diagram name="Page-1" id="X6E6KU5flD8LxkTMiiuV">
    <mxGraphModel dx="880" dy="526" grid="1" gridSize="10" guides="1" tooltips="1" connect="1" arrows="1" fold="1" page="1" pageScale="1" pageWidth="850" pageHeight="1100" math="0" shadow="0">
      <root>
        <mxCell id="0" />
        <mxCell id="1" parent="0" />
        <mxCell id="xvmhAyTS2jFQ2YZMhCxL-56" value="" style="rounded=0;whiteSpace=wrap;html=1;opacity=0;" vertex="1" parent="1">
          <mxGeometry y="160" width="840" height="400" as="geometry" />
        </mxCell>
        <mxCell id="b786dp9i7Ilkifwf2aUX-1" value="S.No" style="rounded=0;whiteSpace=wrap;html=1;" parent="1" vertex="1">
          <mxGeometry x="40" y="200" width="80" height="80" as="geometry" />
        </mxCell>
        <mxCell id="b786dp9i7Ilkifwf2aUX-2" value="Task Name" style="rounded=0;whiteSpace=wrap;html=1;" parent="1" vertex="1">
          <mxGeometry x="120" y="200" width="120" height="80" as="geometry" />
        </mxCell>
        <mxCell id="b786dp9i7Ilkifwf2aUX-5" value="Project Phase 1" style="rounded=0;whiteSpace=wrap;html=1;" parent="1" vertex="1">
          <mxGeometry x="240" y="200" width="400" height="40" as="geometry" />
        </mxCell>
        <mxCell id="xvmhAyTS2jFQ2YZMhCxL-3" value="" style="group" vertex="1" connectable="0" parent="1">
          <mxGeometry x="240" y="240" width="400" height="40" as="geometry" />
        </mxCell>
        <mxCell id="b786dp9i7Ilkifwf2aUX-6" value="July" style="rounded=0;whiteSpace=wrap;html=1;" parent="xvmhAyTS2jFQ2YZMhCxL-3" vertex="1">
          <mxGeometry width="80" height="40" as="geometry" />
        </mxCell>
        <mxCell id="b786dp9i7Ilkifwf2aUX-7" value="August" style="rounded=0;whiteSpace=wrap;html=1;" parent="xvmhAyTS2jFQ2YZMhCxL-3" vertex="1">
          <mxGeometry x="80" width="80" height="40" as="geometry" />
        </mxCell>
        <mxCell id="b786dp9i7Ilkifwf2aUX-8" value="September" style="rounded=0;whiteSpace=wrap;html=1;" parent="xvmhAyTS2jFQ2YZMhCxL-3" vertex="1">
          <mxGeometry x="160" width="80" height="40" as="geometry" />
        </mxCell>
        <mxCell id="b786dp9i7Ilkifwf2aUX-10" value="October" style="rounded=0;whiteSpace=wrap;html=1;" parent="xvmhAyTS2jFQ2YZMhCxL-3" vertex="1">
          <mxGeometry x="240.00000000000006" width="80" height="40" as="geometry" />
        </mxCell>
        <mxCell id="b786dp9i7Ilkifwf2aUX-11" value="November" style="rounded=0;whiteSpace=wrap;html=1;" parent="xvmhAyTS2jFQ2YZMhCxL-3" vertex="1">
          <mxGeometry x="320" width="80" height="40" as="geometry" />
        </mxCell>
        <mxCell id="b786dp9i7Ilkifwf2aUX-17" value="1.&lt;span style=&quot;white-space: pre;&quot;&gt;&#x9;&lt;/span&gt;" style="rounded=0;whiteSpace=wrap;html=1;" parent="1" vertex="1">
          <mxGeometry x="40" y="280" width="80" height="40" as="geometry" />
        </mxCell>
        <mxCell id="b786dp9i7Ilkifwf2aUX-18" value="Literature Review &amp;amp; Domain Identification" style="rounded=0;whiteSpace=wrap;html=1;" parent="1" vertex="1">
          <mxGeometry x="120" y="280" width="120" height="40" as="geometry" />
        </mxCell>
        <mxCell id="xvmhAyTS2jFQ2YZMhCxL-6" value="" style="group" vertex="1" connectable="0" parent="1">
          <mxGeometry x="240" y="280" width="400" height="40" as="geometry" />
        </mxCell>
        <mxCell id="b786dp9i7Ilkifwf2aUX-19" value="" style="rounded=0;whiteSpace=wrap;html=1;fillColor=#a20025;fontColor=#ffffff;strokeColor=#6F0000;" parent="xvmhAyTS2jFQ2YZMhCxL-6" vertex="1">
          <mxGeometry width="80" height="40" as="geometry" />
        </mxCell>
        <mxCell id="b786dp9i7Ilkifwf2aUX-20" value="" style="rounded=0;whiteSpace=wrap;html=1;" parent="xvmhAyTS2jFQ2YZMhCxL-6" vertex="1">
          <mxGeometry x="80" width="80" height="40" as="geometry" />
        </mxCell>
        <mxCell id="b786dp9i7Ilkifwf2aUX-21" value="" style="rounded=0;whiteSpace=wrap;html=1;" parent="xvmhAyTS2jFQ2YZMhCxL-6" vertex="1">
          <mxGeometry x="160" width="80" height="40" as="geometry" />
        </mxCell>
        <mxCell id="b786dp9i7Ilkifwf2aUX-22" value="" style="rounded=0;whiteSpace=wrap;html=1;" parent="xvmhAyTS2jFQ2YZMhCxL-6" vertex="1">
          <mxGeometry x="240" width="80" height="40" as="geometry" />
        </mxCell>
        <mxCell id="b786dp9i7Ilkifwf2aUX-23" value="" style="rounded=0;whiteSpace=wrap;html=1;" parent="xvmhAyTS2jFQ2YZMhCxL-6" vertex="1">
          <mxGeometry x="320" width="80" height="40" as="geometry" />
        </mxCell>
        <mxCell id="xvmhAyTS2jFQ2YZMhCxL-8" value="" style="group;fillColor=#60a917;fontColor=#ffffff;strokeColor=#2D7600;container=0;" vertex="1" connectable="0" parent="1">
          <mxGeometry x="40" y="320" width="600" height="40" as="geometry" />
        </mxCell>
        <mxCell id="xvmhAyTS2jFQ2YZMhCxL-18" value="" style="group;fillColor=#1ba1e2;fontColor=#ffffff;strokeColor=#006EAF;container=0;" vertex="1" connectable="0" parent="1">
          <mxGeometry x="40" y="400" width="600" height="40" as="geometry" />
        </mxCell>
        <mxCell id="b786dp9i7Ilkifwf2aUX-28" value="2." style="rounded=0;whiteSpace=wrap;html=1;" parent="1" vertex="1">
          <mxGeometry x="40" y="320" width="80" height="40" as="geometry" />
        </mxCell>
        <mxCell id="b786dp9i7Ilkifwf2aUX-29" value="Data Preprocessing &amp;amp; Band Selection" style="rounded=0;whiteSpace=wrap;html=1;" parent="1" vertex="1">
          <mxGeometry x="120" y="320" width="120" height="40" as="geometry" />
        </mxCell>
        <mxCell id="xvmhAyTS2jFQ2YZMhCxL-7" value="" style="group" vertex="1" connectable="0" parent="1">
          <mxGeometry x="240" y="320" width="400" height="40" as="geometry" />
        </mxCell>
        <mxCell id="b786dp9i7Ilkifwf2aUX-30" value="" style="rounded=0;whiteSpace=wrap;html=1;" parent="xvmhAyTS2jFQ2YZMhCxL-7" vertex="1">
          <mxGeometry width="80" height="40" as="geometry" />
        </mxCell>
        <mxCell id="b786dp9i7Ilkifwf2aUX-31" value="" style="rounded=0;whiteSpace=wrap;html=1;fillColor=#60a917;fontColor=#ffffff;strokeColor=#2D7600;" parent="xvmhAyTS2jFQ2YZMhCxL-7" vertex="1">
          <mxGeometry x="80" width="80" height="40" as="geometry" />
        </mxCell>
        <mxCell id="b786dp9i7Ilkifwf2aUX-32" value="" style="rounded=0;whiteSpace=wrap;html=1;" parent="xvmhAyTS2jFQ2YZMhCxL-7" vertex="1">
          <mxGeometry x="160" width="80" height="40" as="geometry" />
        </mxCell>
        <mxCell id="b786dp9i7Ilkifwf2aUX-33" value="" style="rounded=0;whiteSpace=wrap;html=1;" parent="xvmhAyTS2jFQ2YZMhCxL-7" vertex="1">
          <mxGeometry x="240" width="80" height="40" as="geometry" />
        </mxCell>
        <mxCell id="b786dp9i7Ilkifwf2aUX-34" value="" style="rounded=0;whiteSpace=wrap;html=1;" parent="xvmhAyTS2jFQ2YZMhCxL-7" vertex="1">
          <mxGeometry x="320" width="80" height="40" as="geometry" />
        </mxCell>
        <mxCell id="xvmhAyTS2jFQ2YZMhCxL-10" value="3." style="rounded=0;whiteSpace=wrap;html=1;" vertex="1" parent="1">
          <mxGeometry x="40" y="360" width="80" height="40" as="geometry" />
        </mxCell>
        <mxCell id="xvmhAyTS2jFQ2YZMhCxL-11" value="Feature Extraction &amp;amp; Regression" style="rounded=0;whiteSpace=wrap;html=1;" vertex="1" parent="1">
          <mxGeometry x="120" y="360" width="120" height="40" as="geometry" />
        </mxCell>
        <mxCell id="xvmhAyTS2jFQ2YZMhCxL-12" value="" style="group" vertex="1" connectable="0" parent="1">
          <mxGeometry x="240" y="360" width="400" height="40" as="geometry" />
        </mxCell>
        <mxCell id="xvmhAyTS2jFQ2YZMhCxL-13" value="" style="rounded=0;whiteSpace=wrap;html=1;" vertex="1" parent="xvmhAyTS2jFQ2YZMhCxL-12">
          <mxGeometry width="80" height="40" as="geometry" />
        </mxCell>
        <mxCell id="xvmhAyTS2jFQ2YZMhCxL-14" value="" style="rounded=0;whiteSpace=wrap;html=1;" vertex="1" parent="xvmhAyTS2jFQ2YZMhCxL-12">
          <mxGeometry x="80" width="80" height="40" as="geometry" />
        </mxCell>
        <mxCell id="xvmhAyTS2jFQ2YZMhCxL-15" value="" style="rounded=0;whiteSpace=wrap;html=1;fillColor=#6a00ff;fontColor=#ffffff;strokeColor=#3700CC;" vertex="1" parent="xvmhAyTS2jFQ2YZMhCxL-12">
          <mxGeometry x="160" width="80" height="40" as="geometry" />
        </mxCell>
        <mxCell id="xvmhAyTS2jFQ2YZMhCxL-16" value="" style="rounded=0;whiteSpace=wrap;html=1;" vertex="1" parent="xvmhAyTS2jFQ2YZMhCxL-12">
          <mxGeometry x="240" width="80" height="40" as="geometry" />
        </mxCell>
        <mxCell id="xvmhAyTS2jFQ2YZMhCxL-17" value="" style="rounded=0;whiteSpace=wrap;html=1;" vertex="1" parent="xvmhAyTS2jFQ2YZMhCxL-12">
          <mxGeometry x="320" width="80" height="40" as="geometry" />
        </mxCell>
        <mxCell id="xvmhAyTS2jFQ2YZMhCxL-19" value="4." style="rounded=0;whiteSpace=wrap;html=1;" vertex="1" parent="1">
          <mxGeometry x="40" y="400" width="80" height="40" as="geometry" />
        </mxCell>
        <mxCell id="xvmhAyTS2jFQ2YZMhCxL-20" value="Comparison of results" style="rounded=0;whiteSpace=wrap;html=1;" vertex="1" parent="1">
          <mxGeometry x="120" y="400" width="120" height="40" as="geometry" />
        </mxCell>
        <mxCell id="xvmhAyTS2jFQ2YZMhCxL-21" value="" style="group" vertex="1" connectable="0" parent="1">
          <mxGeometry x="240" y="400" width="400" height="40" as="geometry" />
        </mxCell>
        <mxCell id="xvmhAyTS2jFQ2YZMhCxL-22" value="" style="rounded=0;whiteSpace=wrap;html=1;" vertex="1" parent="xvmhAyTS2jFQ2YZMhCxL-21">
          <mxGeometry width="80" height="40" as="geometry" />
        </mxCell>
        <mxCell id="xvmhAyTS2jFQ2YZMhCxL-23" value="" style="rounded=0;whiteSpace=wrap;html=1;" vertex="1" parent="xvmhAyTS2jFQ2YZMhCxL-21">
          <mxGeometry x="80" width="80" height="40" as="geometry" />
        </mxCell>
        <mxCell id="xvmhAyTS2jFQ2YZMhCxL-24" value="" style="rounded=0;whiteSpace=wrap;html=1;" vertex="1" parent="xvmhAyTS2jFQ2YZMhCxL-21">
          <mxGeometry x="160" width="80" height="40" as="geometry" />
        </mxCell>
        <mxCell id="xvmhAyTS2jFQ2YZMhCxL-25" value="" style="rounded=0;whiteSpace=wrap;html=1;fillColor=#1ba1e2;fontColor=#ffffff;strokeColor=#006EAF;" vertex="1" parent="xvmhAyTS2jFQ2YZMhCxL-21">
          <mxGeometry x="240" width="80" height="40" as="geometry" />
        </mxCell>
        <mxCell id="xvmhAyTS2jFQ2YZMhCxL-26" value="" style="rounded=0;whiteSpace=wrap;html=1;" vertex="1" parent="xvmhAyTS2jFQ2YZMhCxL-21">
          <mxGeometry x="320" width="80" height="40" as="geometry" />
        </mxCell>
        <mxCell id="xvmhAyTS2jFQ2YZMhCxL-36" value="Project Phase 2" style="rounded=0;whiteSpace=wrap;html=1;" vertex="1" parent="1">
          <mxGeometry x="640" y="200" width="160" height="40" as="geometry" />
        </mxCell>
        <mxCell id="xvmhAyTS2jFQ2YZMhCxL-38" value="December - April" style="rounded=0;whiteSpace=wrap;html=1;" vertex="1" parent="1">
          <mxGeometry x="640" y="240" width="160" height="40" as="geometry" />
        </mxCell>
        <mxCell id="xvmhAyTS2jFQ2YZMhCxL-39" value="" style="rounded=0;whiteSpace=wrap;html=1;" vertex="1" parent="1">
          <mxGeometry x="640" y="360" width="160" height="40" as="geometry" />
        </mxCell>
        <mxCell id="xvmhAyTS2jFQ2YZMhCxL-40" value="" style="rounded=0;whiteSpace=wrap;html=1;" vertex="1" parent="1">
          <mxGeometry x="640" y="320" width="160" height="40" as="geometry" />
        </mxCell>
        <mxCell id="xvmhAyTS2jFQ2YZMhCxL-41" value="" style="rounded=0;whiteSpace=wrap;html=1;" vertex="1" parent="1">
          <mxGeometry x="640" y="280" width="160" height="40" as="geometry" />
        </mxCell>
        <mxCell id="xvmhAyTS2jFQ2YZMhCxL-42" value="" style="rounded=0;whiteSpace=wrap;html=1;" vertex="1" parent="1">
          <mxGeometry x="640" y="400" width="160" height="40" as="geometry" />
        </mxCell>
        <mxCell id="xvmhAyTS2jFQ2YZMhCxL-44" value="" style="group" vertex="1" connectable="0" parent="1">
          <mxGeometry x="40" y="440" width="760" height="40" as="geometry" />
        </mxCell>
        <mxCell id="xvmhAyTS2jFQ2YZMhCxL-28" value="5." style="rounded=0;whiteSpace=wrap;html=1;" vertex="1" parent="xvmhAyTS2jFQ2YZMhCxL-44">
          <mxGeometry width="80" height="40" as="geometry" />
        </mxCell>
        <mxCell id="xvmhAyTS2jFQ2YZMhCxL-29" value="Project Report Writing" style="rounded=0;whiteSpace=wrap;html=1;" vertex="1" parent="xvmhAyTS2jFQ2YZMhCxL-44">
          <mxGeometry x="80" width="120" height="40" as="geometry" />
        </mxCell>
        <mxCell id="xvmhAyTS2jFQ2YZMhCxL-30" value="" style="group" vertex="1" connectable="0" parent="xvmhAyTS2jFQ2YZMhCxL-44">
          <mxGeometry x="200" width="400" height="40" as="geometry" />
        </mxCell>
        <mxCell id="xvmhAyTS2jFQ2YZMhCxL-31" value="" style="rounded=0;whiteSpace=wrap;html=1;" vertex="1" parent="xvmhAyTS2jFQ2YZMhCxL-30">
          <mxGeometry width="80" height="40" as="geometry" />
        </mxCell>
        <mxCell id="xvmhAyTS2jFQ2YZMhCxL-32" value="" style="rounded=0;whiteSpace=wrap;html=1;" vertex="1" parent="xvmhAyTS2jFQ2YZMhCxL-30">
          <mxGeometry x="80" width="80" height="40" as="geometry" />
        </mxCell>
        <mxCell id="xvmhAyTS2jFQ2YZMhCxL-33" value="" style="rounded=0;whiteSpace=wrap;html=1;" vertex="1" parent="xvmhAyTS2jFQ2YZMhCxL-30">
          <mxGeometry x="160" width="80" height="40" as="geometry" />
        </mxCell>
        <mxCell id="xvmhAyTS2jFQ2YZMhCxL-34" value="" style="rounded=0;whiteSpace=wrap;html=1;fillColor=#f0a30a;fontColor=#000000;strokeColor=#BD7000;" vertex="1" parent="xvmhAyTS2jFQ2YZMhCxL-30">
          <mxGeometry x="240" width="80" height="40" as="geometry" />
        </mxCell>
        <mxCell id="xvmhAyTS2jFQ2YZMhCxL-35" value="" style="rounded=0;whiteSpace=wrap;html=1;fillColor=#f0a30a;fontColor=#000000;strokeColor=#BD7000;" vertex="1" parent="xvmhAyTS2jFQ2YZMhCxL-30">
          <mxGeometry x="320" width="80" height="40" as="geometry" />
        </mxCell>
        <mxCell id="xvmhAyTS2jFQ2YZMhCxL-43" value="" style="rounded=0;whiteSpace=wrap;html=1;" vertex="1" parent="xvmhAyTS2jFQ2YZMhCxL-44">
          <mxGeometry x="600" width="160" height="40" as="geometry" />
        </mxCell>
        <mxCell id="xvmhAyTS2jFQ2YZMhCxL-46" value="6." style="rounded=0;whiteSpace=wrap;html=1;" vertex="1" parent="1">
          <mxGeometry x="40" y="480" width="80" height="40" as="geometry" />
        </mxCell>
        <mxCell id="xvmhAyTS2jFQ2YZMhCxL-47" value="Deploy the developed model to real time satellite data" style="rounded=0;whiteSpace=wrap;html=1;" vertex="1" parent="1">
          <mxGeometry x="120" y="480" width="120" height="40" as="geometry" />
        </mxCell>
        <mxCell id="xvmhAyTS2jFQ2YZMhCxL-48" value="" style="group;fillColor=default;container=0;" vertex="1" connectable="0" parent="1">
          <mxGeometry x="240" y="480" width="400" height="40" as="geometry" />
        </mxCell>
        <mxCell id="xvmhAyTS2jFQ2YZMhCxL-54" value="" style="rounded=0;whiteSpace=wrap;html=1;fillColor=#fa6800;fontColor=#000000;strokeColor=#C73500;" vertex="1" parent="1">
          <mxGeometry x="640" y="480" width="160" height="40" as="geometry" />
        </mxCell>
        <mxCell id="xvmhAyTS2jFQ2YZMhCxL-49" value="" style="rounded=0;whiteSpace=wrap;html=1;" vertex="1" parent="1">
          <mxGeometry x="240" y="480" width="80" height="40" as="geometry" />
        </mxCell>
        <mxCell id="xvmhAyTS2jFQ2YZMhCxL-50" value="" style="rounded=0;whiteSpace=wrap;html=1;" vertex="1" parent="1">
          <mxGeometry x="320" y="480" width="80" height="40" as="geometry" />
        </mxCell>
        <mxCell id="xvmhAyTS2jFQ2YZMhCxL-51" value="" style="rounded=0;whiteSpace=wrap;html=1;" vertex="1" parent="1">
          <mxGeometry x="400" y="480" width="80" height="40" as="geometry" />
        </mxCell>
        <mxCell id="xvmhAyTS2jFQ2YZMhCxL-53" value="" style="rounded=0;whiteSpace=wrap;html=1;fillColor=none;" vertex="1" parent="1">
          <mxGeometry x="560" y="480" width="80" height="40" as="geometry" />
        </mxCell>
        <mxCell id="xvmhAyTS2jFQ2YZMhCxL-57" value="" style="rounded=0;whiteSpace=wrap;html=1;" vertex="1" parent="1">
          <mxGeometry x="480" y="480" width="80" height="40" as="geometry" />
        </mxCell>
      </root>
    </mxGraphModel>
  </diagram>
</mxfile>
